<svg xmlns="http://www.w3.org/2000/svg" xmlns:xlink="http://www.w3.org/1999/xlink" xmlns:svgjs="http://svgjs.com/svgjs" width="512" height="512" x="0" y="0" viewBox="0 0 496 496" style="enable-background:new 0 0 512 512" xml:space="preserve" class=""><g>
<g xmlns="http://www.w3.org/2000/svg">
	<g>
		<g>
			<path d="M447.812,390.192c-5.368-32.232-27.968-58.68-58.976-69.016l-68.832-22.944V288h-16v15.008l-11.944,47.768L259.748,312     h-23.496l-32.312,38.776l-11.936-47.768V288h-16v10.232l-68.832,22.944c-31,10.336-53.6,36.784-58.976,69.016L30.556,496h434.888     L447.812,390.192z M391.244,480l-7.28-72.8l-15.92,1.592l7.12,71.2h-119.16V344h-16v136h-119.16l7.12-71.2l-15.92-1.592     l-7.28,72.8H49.452L63.98,392.84c4.392-26.376,22.888-48.008,48.256-56.472l66.104-22.04l17.728,70.904L243.748,328h8.504     l47.688,57.224l17.728-70.904l66.104,22.04c25.368,8.456,43.856,30.096,48.256,56.472L446.556,480H391.244z" fill="#e99a51" data-original="#000000" style=""></path>
			<rect x="272.004" y="392" width="16" height="16" fill="#e99a51" data-original="#000000" style=""></rect>
			<rect x="272.004" y="448" width="16" height="16" fill="#e99a51" data-original="#000000" style=""></rect>
			<path d="M120.004,216h27.648c4.112,13.864,11.616,26.576,22.128,37.088l31.2,31.2C208.532,291.84,218.572,296,229.26,296h37.496     c10.68,0,20.728-4.16,28.28-11.712L315.316,264h12.688c22.056,0,40-17.944,40-40v-8h8c22.056,0,40-17.944,40-40v-32     c0-22.056-17.944-40-40-40h-9.312C358.78,45.128,308.108,0,248.004,0S137.228,45.128,129.316,104h-9.312     c-22.056,0-40,17.944-40,40v32C80.004,198.056,97.948,216,120.004,216z M384.004,121.48c9.288,3.304,16,12.104,16,22.52v32     c0,10.416-6.712,19.216-16,22.528V121.48z M314.916,241.768L308.692,248h-84.688v16h68.688l-8.976,8.976     c-4.464,4.464-10.648,7.024-16.968,7.024h-37.496c-6.32,0-12.496-2.56-16.968-7.024l-31.2-31.2     c-13.6-13.6-21.088-31.68-21.088-50.912V152h31.432c35.208,0,68.496-12.504,94.8-35.408l2.448,4.08     c10.208,17.016,27.872,28.328,47.328,30.792v39.392C336.004,210.088,328.516,228.168,314.916,241.768z M352.004,190.864V144v-24     h16v80h-16V190.864z M352.004,224c0,12.16-9.128,22.136-20.872,23.688c7.952-9.36,13.792-20.104,17.224-31.688h3.648V224z      M248.004,16c51.36,0,94.824,38.024,102.592,88h-14.592v31.24c-13.832-2.352-26.28-10.592-33.608-22.8l-12.808-21.344     l-7.248,7.248C258.06,122.624,225.78,136,191.436,136h-31.432v-32h-14.592C153.18,54.024,196.644,16,248.004,16z M128.004,120h16     v24v46.864V200h-16V120z M96.004,144c0-10.416,6.712-19.216,16-22.528v77.048c-9.288-3.312-16-12.112-16-22.528V144z" fill="#e99a51" data-original="#000000" style=""></path>
		</g>
	</g>
</g>
<g xmlns="http://www.w3.org/2000/svg">
</g>
<g xmlns="http://www.w3.org/2000/svg">
</g>
<g xmlns="http://www.w3.org/2000/svg">
</g>
<g xmlns="http://www.w3.org/2000/svg">
</g>
<g xmlns="http://www.w3.org/2000/svg">
</g>
<g xmlns="http://www.w3.org/2000/svg">
</g>
<g xmlns="http://www.w3.org/2000/svg">
</g>
<g xmlns="http://www.w3.org/2000/svg">
</g>
<g xmlns="http://www.w3.org/2000/svg">
</g>
<g xmlns="http://www.w3.org/2000/svg">
</g>
<g xmlns="http://www.w3.org/2000/svg">
</g>
<g xmlns="http://www.w3.org/2000/svg">
</g>
<g xmlns="http://www.w3.org/2000/svg">
</g>
<g xmlns="http://www.w3.org/2000/svg">
</g>
<g xmlns="http://www.w3.org/2000/svg">
</g>
</g></svg>